<?xml version="1.0" encoding="utf-8"?>
<!-- Generator: Adobe Illustrator 23.0.5, SVG Export Plug-In . SVG Version: 6.00 Build 0)  -->
<svg version="1.1" id="圖層_1" xmlns="http://www.w3.org/2000/svg" xmlns:xlink="http://www.w3.org/1999/xlink" x="0px" y="0px"
	 viewBox="0 0 100 100" style="enable-background:new 0 0 100 100;" xml:space="preserve">
<style type="text/css">
	.st0{fill:#717071;}
	.st1{fill:#20804B;}
	.st2{fill:#6CBB63;}
	.st3{fill:#58A24C;}
</style>
<g>
	<path class="st0" d="M50.08,28.98c-1.59,0.04-3.19,0.31-4.74,0.64c-0.78,0.17-1.54,0.38-2.28,0.63c-0.73,0.26-1.45,0.57-2.01,0.98
		l-0.58,0.42l-0.34-0.64l-2.2-4.14c-0.73-1.35-1.49-2.69-2.28-4c-0.79-1.3-1.63-2.58-2.53-3.76c-0.45-0.58-0.93-1.14-1.42-1.61
		c-0.46-0.47-1.07-0.89-1.31-0.89c-0.13-0.02,0.03,0.06,0.08,0c0.01,0.03,0,0.03-0.03,0.07c-0.03,0.09-0.08,0.15-0.13,0.25
		c-0.2,0.45-0.37,1.11-0.5,1.79l-0.41,2.24l-0.48,2.27c-0.68,3.02-1.45,6.03-2.57,9.01l0,0c-0.03,0.08-0.12,0.12-0.2,0.09
		c-0.06-0.02-0.1-0.08-0.1-0.13c-0.2-3.15-0.06-6.27,0.18-9.38c0.15-1.57,0.25-3.07,0.52-4.67c0.15-0.84,0.36-1.7,0.84-2.65
		c0.14-0.24,0.33-0.49,0.5-0.73c0.22-0.24,0.51-0.5,0.82-0.71c0.73-0.44,1.71-0.45,2.32-0.2c1.25,0.48,1.79,1.19,2.39,1.83
		c0.57,0.66,1.04,1.33,1.48,2.01c0.88,1.36,1.64,2.75,2.35,4.15c1.41,2.79,2.68,5.72,3.81,8.5l-0.92-0.22
		c0.8-0.46,1.61-0.71,2.43-0.91c0.81-0.2,1.63-0.33,2.44-0.43c1.63-0.19,3.26-0.27,4.9-0.13c0.08,0.01,0.14,0.08,0.14,0.16
		C50.23,28.92,50.16,28.97,50.08,28.98L50.08,28.98z"/>
</g>
<g>
	<path class="st0" d="M49.7,28.68c1.64-0.15,3.27-0.06,4.9,0.13c0.81,0.1,1.63,0.23,2.44,0.43c0.81,0.21,1.63,0.45,2.43,0.91
		l-0.92,0.22c1.13-2.78,2.41-5.71,3.81-8.5c0.71-1.4,1.47-2.79,2.35-4.15c0.44-0.68,0.91-1.36,1.48-2.01
		c0.6-0.64,1.14-1.35,2.39-1.83c0.61-0.25,1.59-0.23,2.32,0.2c0.31,0.2,0.6,0.46,0.82,0.71c0.17,0.23,0.36,0.49,0.5,0.73
		c0.48,0.94,0.69,1.8,0.84,2.65c0.27,1.6,0.37,3.11,0.52,4.67c0.24,3.11,0.38,6.23,0.18,9.38c-0.01,0.08-0.08,0.15-0.16,0.14
		c-0.06,0-0.11-0.04-0.13-0.1l0,0c-1.12-2.98-1.89-5.99-2.57-9.01l-0.48-2.27l-0.41-2.24c-0.13-0.68-0.3-1.34-0.5-1.79
		c-0.05-0.1-0.09-0.16-0.13-0.25c-0.03-0.04-0.04-0.05-0.03-0.07c0.05,0.06,0.21-0.02,0.08,0c-0.24,0-0.85,0.42-1.31,0.89
		c-0.49,0.47-0.97,1.03-1.42,1.61c-0.9,1.18-1.74,2.45-2.53,3.76c-0.79,1.31-1.55,2.65-2.28,4l-2.2,4.14l-0.34,0.64l-0.58-0.42
		c-0.56-0.41-1.28-0.72-2.01-0.98c-0.74-0.26-1.5-0.46-2.28-0.63c-1.55-0.33-3.15-0.6-4.74-0.64l-0.01,0
		c-0.08,0-0.15-0.07-0.15-0.15C49.57,28.74,49.63,28.68,49.7,28.68z"/>
</g>
<path class="st1" d="M46,65.68c1.75,4.86-8.82,9.02-1.11,19.73c0.44-2.77,1.69-5.38,3.98-7.59c2.83-3.53,8.11-6.56,8.18-9.93
	c0.12-6.02-4.7-9.42-5.67-12.28c-0.97-2.86-0.91-3.77-0.91-3.77C42.96,55.35,44.23,60.78,46,65.68z"/>
<path class="st2" d="M37.5,63.71c-0.47,5.25-7.3,7.07-5.03,18.74c3.78-6.33,10.72-6.35,12.08-9.67c1.14-2.76,2.89-3.33,2.91-8.04
	c0.02-7.02-0.84-4.62-0.5-7.71c0.34-3.08,0.7-2.49,0.7-2.49C39.84,59.97,37.97,58.43,37.5,63.71z"/>
<path class="st3" d="M47.97,69.5c3.12,4.6-6.99,12.87,3.98,21.6c-0.26-3.13,0.39-6.38,2.24-9.58c2.07-4.81,6.87-9.96,6.07-13.62
	c-1.44-6.51-7.43-8.43-9.21-11.16c-1.78-2.73-1.14-5.22-1.14-5.22C42.86,58,44.82,64.88,47.97,69.5z"/>
<path class="st2" d="M58.11,66.09c4.81,3.4-1.63,11.06,12.32,17.03c-1.48-2.5-2.14-5.19-1.63-7.95c0.09-4.08,2.67-8.71,0.46-11.57
	c-3.95-5.11-10.43-4.17-13.19-6.22c-2.12-1.57-6.17-6.19-6.17-6.19C45.7,57.1,53.27,62.67,58.11,66.09z"/>
<g>
	<path class="st0" d="M49.98,51.11c-1.35,2.19-3.01,4.17-4.96,5.92c-1.96,1.68-4.32,3.16-7.1,3.52c-1.38,0.18-2.83,0.04-4.17-0.41
		c-0.68-0.22-1.3-0.56-1.91-0.91c-0.56-0.41-1.13-0.81-1.6-1.31c-1.95-1.93-3.23-4.3-3.94-6.81c-0.02-0.05,0.02-0.11,0.07-0.13
		c0.04-0.01,0.08,0,0.11,0.03c1.68,1.98,3.24,3.93,5.1,5.42c0.91,0.76,1.86,1.4,2.9,1.86c1.02,0.48,2.16,0.71,3.32,0.66
		c2.33-0.1,4.63-1.24,6.62-2.7c2.02-1.46,3.83-3.27,5.41-5.25l0,0c0.03-0.04,0.1-0.05,0.14-0.02C50,51.01,50.01,51.06,49.98,51.11z"
		/>
</g>
<g>
	<path class="st0" d="M49.98,51c1.59,1.97,3.39,3.79,5.41,5.25c1.99,1.47,4.29,2.6,6.62,2.7c1.16,0.05,2.29-0.18,3.32-0.66
		c1.03-0.46,1.99-1.1,2.9-1.86c1.86-1.48,3.42-3.44,5.1-5.42c0.04-0.04,0.1-0.05,0.14-0.01c0.03,0.03,0.04,0.07,0.03,0.11
		c-0.71,2.51-1.99,4.88-3.94,6.81c-0.47,0.49-1.04,0.9-1.6,1.31c-0.61,0.35-1.23,0.69-1.91,0.91c-1.35,0.45-2.79,0.59-4.17,0.41
		c-2.79-0.36-5.14-1.83-7.1-3.52c-1.94-1.74-3.61-3.73-4.96-5.92c-0.03-0.05-0.01-0.11,0.03-0.14C49.89,50.94,49.95,50.95,49.98,51
		L49.98,51z"/>
</g>
<path class="st0" d="M53.57,45.32c-0.39-1.98-2.21-3.28-4.2-2.99c-1.77,0.25-3.13,1.8-3.17,3.6c0,0.06,0.02,0.09,0.08,0.11
	c0.09,0.03,0.18,0.07,0.26,0.1c0.77,0.31,1.51,0.66,2.18,1.15c0.11,0.08,0.2,0.17,0.3,0.26c0.1,0.19,0.19,0.37,0.28,0.57
	c0.41,0.98,0.54,2.01,0.51,3.07h0.18c-0.05-1.24,0.15-2.43,0.72-3.54c0.01-0.01,0.02-0.02,0.02-0.04c0.19-0.18,0.39-0.33,0.61-0.48
	c0.68-0.46,1.43-0.79,2.19-1.08c0.07-0.03,0.1-0.06,0.1-0.14C53.63,45.71,53.61,45.51,53.57,45.32z"/>
<circle class="st0" cx="40.15" cy="36.98" r="1.89"/>
<g>
	<path class="st0" d="M62.12,33.91c-0.74,0.73-1.54,1.37-2.36,1.98c-0.81,0.62-1.66,1.19-2.51,1.74l-0.03-0.86
		c1.7,0.96,3.37,1.99,4.9,3.27c-1.9-0.6-3.66-1.47-5.38-2.4c-0.24-0.13-0.33-0.43-0.2-0.67c0.04-0.08,0.1-0.14,0.17-0.18
		c0.86-0.55,1.73-1.08,2.63-1.57C60.24,34.74,61.15,34.29,62.12,33.91z"/>
</g>
</svg>
